<svg xmlns="http://www.w3.org/2000/svg" width="27" height="27" viewBox="0 0 27 27">
  <defs>
    <style>
      .cls-1 {
        fill: #219767;
      }

      .cls-2 {
        fill: none;
      }
    </style>
  </defs>
  <g id="组_290" data-name="组 290" transform="translate(-1739 -23)">
    <path id="_11" data-name="11" class="cls-1" d="M23.324,23.324H0V18.95c0-2.164,2.377-3.571,4.371-4.37a21.646,21.646,0,0,1,7.29-1.461,21.649,21.649,0,0,1,7.291,1.461c1.994.8,4.372,2.205,4.372,4.37v4.372ZM11.662,15.89c-4.335,0-8.891,2.124-8.891,3.061v1.6H20.553v-1.6C20.554,18.014,16,15.89,11.662,15.89Zm0-4.228a5.831,5.831,0,1,1,5.832-5.831A5.837,5.837,0,0,1,11.662,11.662Zm0-8.891a3.061,3.061,0,1,0,3.062,3.061A3.064,3.064,0,0,0,11.662,2.77Z" transform="translate(1740.928 24.929)"/>
    <rect id="矩形_97" data-name="矩形 97" class="cls-2" width="27" height="27" transform="translate(1739 23)"/>
  </g>
</svg>
