<svg xmlns="http://www.w3.org/2000/svg" width="43" height="32" viewBox="0 0 43 32">
  <defs>
    <style>
      .cls-1 {
        fill: #219767;
      }

      .cls-2 {
        fill: none;
      }
    </style>
  </defs>
  <g id="组_307" data-name="组 307" transform="translate(-798 -295)">
    <path id="路径_74" data-name="路径 74" class="cls-1" d="M95.593,210.565H66.366a3.247,3.247,0,0,0-3.244,3.244v20.536a3.247,3.247,0,0,0,3.244,3.244H95.593a3.247,3.247,0,0,0,3.244-3.244V213.809A3.247,3.247,0,0,0,95.593,210.565Zm0,2.232a1,1,0,0,1,.457.109l-15.07,10.868-15.07-10.868a1,1,0,0,1,.457-.11H95.593Zm0,22.559H66.366a1.013,1.013,0,0,1-1.011-1.011V215.259l15.625,11.268L96.6,215.259v19.086a1.012,1.012,0,0,1-1.011,1.011Z" transform="translate(738.878 87.397)"/>
    <rect id="矩形_261" data-name="矩形 261" class="cls-2" width="43" height="32" transform="translate(798 295)"/>
  </g>
</svg>
