<svg xmlns="http://www.w3.org/2000/svg" width="33" height="33" viewBox="0 0 33 33">
  <defs>
    <style>
      .cls-1 {
        fill: #219767;
      }

      .cls-2 {
        fill: none;
      }
    </style>
  </defs>
  <g id="组_285" data-name="组 285" transform="translate(-420 -259)">
    <g id="组_284" data-name="组 284" transform="translate(221.68 120.648)">
      <path id="路径_68" data-name="路径 68" class="cls-1" d="M204.4,164.6a1.222,1.222,0,0,1-1.231-1.21V152.283h19.7v3.11a7.867,7.867,0,0,1,1.847.384v-5.341h-23.4v12.952a3.068,3.068,0,0,0,3.079,3.057h10.525a7.874,7.874,0,0,1-.547-1.847Zm17.857-14.162h-1.847v-1.848a7.389,7.389,0,1,0-14.777,0v1.848h-1.847v-1.848a9.236,9.236,0,1,1,18.472,0v1.848Z"/>
      <path id="路径_69" data-name="路径 69" class="cls-1" d="M432.476,491.512h.616a.924.924,0,0,1,.923.923v4.31a.924.924,0,0,1-.925.924h-.616a.924.924,0,0,1-.924-.924v-4.31A.925.925,0,0,1,432.476,491.512Zm9.477,1.276a6.645,6.645,0,1,0,6.645,6.645A6.645,6.645,0,0,0,441.953,492.788Zm.068,11.478a5.037,5.037,0,1,1,5.037-5.037A5.037,5.037,0,0,1,442.021,504.266Z" transform="translate(-219.765 -336.15)"/>
      <path id="路径_70" data-name="路径 70" class="cls-1" d="M657.168,710.952h.6v.539h-.6Z" transform="translate(-435.125 -545.615)"/>
      <path id="路径_71" data-name="路径 71" class="cls-1" d="M649.168,702.952h1.323v1.266h-1.323Z" transform="translate(-427.488 -537.978)"/>
      <path id="路径_72" data-name="路径 72" class="cls-1" d="M623.126,590.582A1.989,1.989,0,0,0,621,592.227h.482a1.585,1.585,0,0,1,1.644-1.332,1.273,1.273,0,0,1,1.333,1.247q.085.652-.935,1.3a1.55,1.55,0,0,0-.851,1.361v.283h.482v-.255a1.173,1.173,0,0,1,.624-1.106q1.276-.68,1.191-1.644-.142-1.417-1.843-1.5Z" transform="translate(-400.601 -430.717)"/>
      <path id="路径_73" data-name="路径 73" class="cls-1" d="M613.545,587.82h-1.209v-.647a1.89,1.89,0,0,1,1.017-1.666c.379-.241.818-.6.772-.951a.918.918,0,0,0-1-.932H613.1c-.4,0-.965.111-1.245,1.071l-.076.262h-1.23l.124-.459a2.346,2.346,0,0,1,2.423-1.913h.06c1.676.084,2.12,1.041,2.2,1.83s-.395,1.475-1.382,2a.808.808,0,0,0-.432.77Z" transform="translate(-390.628 -423.082)"/>
    </g>
    <rect id="矩形_240" data-name="矩形 240" class="cls-2" width="33" height="33" transform="translate(420 259)"/>
  </g>
</svg>
