<svg xmlns="http://www.w3.org/2000/svg" width="23" height="23" viewBox="0 0 23 23">
  <defs>
    <style>
      .cls-1 {
        fill: #303b3c;
      }

      .cls-2 {
        fill: none;
      }
    </style>
  </defs>
  <g id="组_377" data-name="组 377" transform="translate(-1468 -214)">
    <path id="关_闭_1_" data-name="关  闭 (1)" class="cls-1" d="M60.279,71.188,66.862,64.6a.862.862,0,0,0,0-1.213l-.036-.036a.862.862,0,0,0-1.212,0l-6.583,6.594-6.583-6.594a.862.862,0,0,0-1.212,0l-.036.036a.846.846,0,0,0,0,1.213l6.583,6.585L51.2,77.773a.862.862,0,0,0,0,1.213l.036.036a.862.862,0,0,0,1.212,0l6.583-6.586,6.583,6.586a.862.862,0,0,0,1.212,0l.036-.036a.862.862,0,0,0,0-1.213Z" transform="translate(1420.444 154.576)"/>
    <rect id="矩形_267" data-name="矩形 267" class="cls-2" width="23" height="23" transform="translate(1468 214)"/>
  </g>
</svg>
