<svg xmlns="http://www.w3.org/2000/svg" width="15" height="15" viewBox="0 0 15 15">
  <defs>
    <style>
      .cls-1 {
        fill: #e7a618;
      }

      .cls-2 {
        fill: none;
      }
    </style>
  </defs>
  <g id="组_308" data-name="组 308" transform="translate(-833 -133)">
    <g id="组_199" data-name="组 199" transform="translate(755.404 -843.745)">
      <path id="路径_50" data-name="路径 50" class="cls-1" d="M90.428,982.315H88.52a.334.334,0,0,1-.333-.334v-3.9a.334.334,0,0,0-.334-.333h-3.9a.334.334,0,0,0-.334.333v3.9a.334.334,0,0,1-.333.334H81.376a.333.333,0,0,0-.236.569l4.525,4.526a.334.334,0,0,0,.472,0l4.526-4.526A.333.333,0,0,0,90.428,982.315Z" transform="translate(-0.975)"/>
      <rect id="矩形_189" data-name="矩形 189" class="cls-1" width="10.663" height="1.523" rx="0.39" transform="translate(79.596 988.836)"/>
    </g>
    <rect id="矩形_262" data-name="矩形 262" class="cls-2" width="15" height="15" transform="translate(833 133)"/>
  </g>
</svg>
