<svg xmlns="http://www.w3.org/2000/svg" width="25" height="25" viewBox="0 0 25 25">
  <defs>
    <style>
      .cls-1 {
        fill: #303b3c;
      }

      .cls-2 {
        fill: none;
      }
    </style>
  </defs>
  <g id="组_345" data-name="组 345" transform="translate(-1468 -214)">
    <path id="关_闭_1_" data-name="关  闭 (1)" class="cls-1" d="M61.091,71.891l7.155-7.158a.937.937,0,0,0,0-1.318l-.039-.039a.937.937,0,0,0-1.318,0l-7.155,7.168-7.155-7.168a.937.937,0,0,0-1.318,0l-.039.039a.92.92,0,0,0,0,1.318l7.155,7.158-7.155,7.158a.937.937,0,0,0,0,1.318l.039.039a.937.937,0,0,0,1.318,0l7.155-7.158,7.155,7.158a.937.937,0,0,0,1.318,0l.039-.039a.937.937,0,0,0,0-1.318Z" transform="translate(1420.738 154.896)"/>
    <rect id="矩形_267" data-name="矩形 267" class="cls-2" width="25" height="25" transform="translate(1468 214)"/>
  </g>
</svg>
