<svg xmlns="http://www.w3.org/2000/svg" width="16.889" height="19" viewBox="0 0 16.889 19">
  <defs>
    <style>
      .cls-1 {
        fill: #219767;
      }
    </style>
  </defs>
  <path id="开票管理" class="cls-1" d="M238.933,206.906a2.107,2.107,0,0,1,2.1-2.106h12.679a2.105,2.105,0,0,1,2.1,2.106V223.8h-1.056l-1.056-2.111H251.6l-1.056,2.111h-1.056l-1.056-2.111h-2.111l-1.056,2.111h-1.056l-1.056-2.111h-2.111l-1.056,2.111h-1.056Zm3.167,3.172a1.051,1.051,0,0,0,1.05,1.056H251.6a1.056,1.056,0,0,0,0-2.111H243.15A1.06,1.06,0,0,0,242.1,210.078Zm0,5.278a1.051,1.051,0,0,0,1.05,1.056H251.6a1.056,1.056,0,0,0,0-2.111H243.15A1.06,1.06,0,0,0,242.1,215.356Z" transform="translate(-238.933 -204.8)"/>
</svg>
