<svg xmlns="http://www.w3.org/2000/svg" width="22" height="17.001" viewBox="0 0 22 17.001">
  <defs>
    <style>
      .cls-1 {
        fill: #219767;
      }
    </style>
  </defs>
  <path id="发票" class="cls-1" d="M21.725,117.1A.349.349,0,0,0,22,116.76v-.035a.346.346,0,0,0-.344-.35H1.778A1.778,1.778,0,0,0,0,118.153V131.6a1.778,1.778,0,0,0,1.778,1.778H21.656a.345.345,0,0,0,.344-.345v-.041a.35.35,0,0,0-.275-.338,1.2,1.2,0,0,1,0-2.338.35.35,0,0,0,.275-.338v-1.392a.349.349,0,0,0-.275-.338,1.2,1.2,0,0,1,0-2.339A.349.349,0,0,0,22,125.57v-1.391a.349.349,0,0,0-.275-.337,1.2,1.2,0,0,1,0-2.339.349.349,0,0,0,.275-.337v-1.391a.349.349,0,0,0-.275-.337,1.2,1.2,0,0,1,0-2.339Zm-6.364,3.347c-.711,1.229-1.461,2.437-2.193,3.654l-.255.426c.173.009.3.013.433.023a10.017,10.017,0,0,1,1.174.1.567.567,0,0,1,.462.635.59.59,0,0,1-.456.614,2.049,2.049,0,0,1-.549.1c-.6.012-1.2,0-1.829,0v1.126c.484,0,.974-.005,1.464,0a4.763,4.763,0,0,1,.736.05.649.649,0,0,1,.634.688.63.63,0,0,1-.648.669c-.519.055-1.043.047-1.566.063-.2.006-.41,0-.613,0-.031.44-.033.855-.095,1.261a.972.972,0,0,1-1.077.942.779.779,0,0,1-.771-.5,4.773,4.773,0,0,1-.212-.973,5.543,5.543,0,0,1-.006-.728H9.638c-.621-.018-1.245-.014-1.862-.063a.63.63,0,0,1-.635-.524.645.645,0,0,1,.508-.807,3.057,3.057,0,0,1,.675-.075c.542-.01,1.084,0,1.646,0V126c-.593,0-1.186.005-1.772,0a2.229,2.229,0,0,1-.554-.074.615.615,0,0,1-.513-.664.579.579,0,0,1,.513-.625,4.5,4.5,0,0,1,.791-.083c.242-.013.485,0,.787,0-.11-.178-.184-.3-.262-.424l-2.173-3.39c-.059-.091-.112-.186-.165-.281a.961.961,0,0,1,.461-1.506h.474a1.683,1.683,0,0,1,.822.771q1.245,1.956,2.5,3.912c.056.088.119.174.189.28.069-.107.119-.178.165-.254q1.177-1.947,2.351-3.9a1.582,1.582,0,0,1,.852-.812h.474a.938.938,0,0,1,.455,1.5Z" transform="translate(0 -116.375)"/>
</svg>
