<svg xmlns="http://www.w3.org/2000/svg" width="76.133" height="23.864" viewBox="0 0 76.133 23.864">
  <defs>
    <style>
      .cls-1 {
        fill: #fff;
      }
    </style>
  </defs>
  <g id="组_31" data-name="组 31" transform="translate(1096.879 -142.072)">
    <path id="路径_1" data-name="路径 1" class="cls-1" d="M-1021.182,231.3h0a42.588,42.588,0,0,0-22.53,3.954,52.9,52.9,0,0,1-25.1,5.883c-11.491-.415-21.718-4.729-28.069-9.964h0C-1063.356,259.376-1022.33,231.963-1021.182,231.3Z" transform="translate(0 -77.953)"/>
    <g id="组_2" data-name="组 2" transform="translate(-1042.866 142.072)">
      <g id="组_1" data-name="组 1" transform="translate(0 0)">
        <path id="路径_2" data-name="路径 2" class="cls-1" d="M-623.344,142.072h-1.295a.6.6,0,0,0-.656.5l-.726,2.668h1.255a.583.583,0,0,0,.628-.511l.228-.762h3.561c.318,0,.493-.109.493-.435v-.689h-3.718Z" transform="translate(630.68 -142.072)"/>
        <path id="路径_3" data-name="路径 3" class="cls-1" d="M-550.766,196.833l-.7,2.1h1.242a.548.548,0,0,0,.6-.418l.692-2.087h-1.212A.558.558,0,0,0-550.766,196.833Z" transform="translate(565.412 -189.652)"/>
        <path id="路径_4" data-name="路径 4" class="cls-1" d="M-505.66,196.425h-1.211l.692,2.087a.548.548,0,0,0,.6.418h1.241l-.7-2.1A.558.558,0,0,0-505.66,196.425Z" transform="translate(526.378 -189.652)"/>
        <path id="路径_5" data-name="路径 5" class="cls-1" d="M-620.973,164.416l-1.448-.013a.815.815,0,0,0-.8.422l-.906,1.414-.41-.577a.8.8,0,0,0-.78-.4h-1.471l1.729,2.431-2.055,3.205,1.576,0a.8.8,0,0,0,.768-.429l.788-1.257.911,1.281a.781.781,0,0,0,.754.409h1.5l-2.246-3.159Z" transform="translate(631.635 -161.62)"/>
        <path id="路径_6" data-name="路径 6" class="cls-1" d="M-660.866,142.5v.448h-.463l.057-.635h-1.207c-.4,0-.546.156-.576.425l-.361,4h1.155c.32,0,.593-.109.628-.435l.2-2.234h.565v4.13l-1.982.477a.54.54,0,0,0-.5.587v.845l2.483-.595v1.838h1.336c.3,0,.473-.109.473-.435v-8.843h-1.308C-660.746,142.072-660.866,142.228-660.866,142.5Z" transform="translate(663.416 -142.072)"/>
        <path id="路径_7" data-name="路径 7" class="cls-1" d="M-543.106,158.53h.884c.57,0,.755-.331.755-.815v-3.389h-2.827v-.663H-545.6c-.381,0-.5.156-.5.425v.238h-2.036c-.616,0-.789.251-.789.826v3.377h2.835V161.5h1.172a.625.625,0,0,0,.618-.584V158.53Zm-4.185-1.593h3.175c.275,0,.427-.1.427-.394v-.624h-3.6v-.252a.279.279,0,0,1,.288-.274h3.9v1.788c0,.209-.091.283-.313.283h-3.872Z" transform="translate(563.195 -152.219)"/>
        <path id="路径_8" data-name="路径 8" class="cls-1" d="M-567.979,142.494c-1.146,0-1.55.37-1.55,1.312v7.913h1.325c.3,0,.472-.109.472-.435V144c0-.256.169-.387.455-.387h7.7c.3,0,.472-.11.472-.435v-.688Z" transform="translate(581.228 -142.441)"/>
      </g>
    </g>
    <g id="组_4" data-name="组 4" transform="translate(-1096.573 142.221)">
      <g id="组_3" data-name="组 3" transform="translate(0)">
        <path id="路径_9" data-name="路径 9" class="cls-1" d="M-992.829,146.374h-1.546V153.2a4.579,4.579,0,0,1-1.407.279c-.87-.01-1.342-.4-1.342-1.4v-4.846c0-.647-.294-.857-.744-.857h-1.609V152.3c0,2.117,1.4,2.947,3.739,2.8,1.221-.075,2.741-.691,3.656-.793v-6.989C-992.081,146.763-992.325,146.374-992.829,146.374Z" transform="translate(1011.307 -145.987)"/>
        <path id="路径_10" data-name="路径 10" class="cls-1" d="M-799.97,143.389a16.716,16.716,0,0,0-3.637.593v1.883a7.364,7.364,0,0,1,3.356-.856c1.123.012,1.533.4,1.533,1.4v.168c-1.925-.324-5.342-.163-5.449,2.86-.078,2.2,1.528,2.968,3.385,3.009,1.71.037,2.72-.693,4.3-.535v-5.557C-796.482,144.124-797.661,143.389-799.97,143.389Zm-1.86,5.976c.067-1.439,1.943-1.571,3.112-1.4v2.622a5.785,5.785,0,0,1-1.406.239C-801.106,150.865-801.878,150.394-801.831,149.365Z" transform="translate(840.337 -143.374)"/>
        <path id="路径_11" data-name="路径 11" class="cls-1" d="M-1087.029,143.377a6.633,6.633,0,0,0-2.044.406,4.758,4.758,0,0,0-2.231-.406,9.993,9.993,0,0,0-3.115.685V152.1h1.537c.674,0,.771-.494.771-.838v-6.134a3.123,3.123,0,0,1,.847-.134c.8.01,1.083.4,1.083,1.4v4.864c0,.524.119.839.733.839h1.54V146.18a4.089,4.089,0,0,0-.116-1.026,3.237,3.237,0,0,1,.965-.157c.8.014,1.083.4,1.083,1.4v4.864c0,.524.119.839.733.839h1.577V146.18C-1083.667,144.064-1084.831,143.331-1087.029,143.377Z" transform="translate(1094.419 -143.362)"/>
        <path id="路径_12" data-name="路径 12" class="cls-1" d="M-932.872,147.3l-1.045,2.121-1.215-2.405a1,1,0,0,0-1.021-.643h-1.959l2.915,5.646-1.465,2.974c1.679,0,1.533,0,1.543,0a1.2,1.2,0,0,0,1.261-.685c.253-.5,3.91-7.931,3.91-7.931h-1.643C-932.275,146.371-932.532,146.583-932.872,147.3Z" transform="translate(957.589 -145.987)"/>
        <path id="路径_13" data-name="路径 13" class="cls-1" d="M-862.453,146.374H-864V153.2a4.573,4.573,0,0,1-1.406.279c-.87-.01-1.342-.4-1.342-1.4v-4.846c0-.647-.294-.857-.744-.857h-1.61V152.3c0,2.117,1.4,2.947,3.74,2.8,1.221-.075,2.741-.691,3.656-.793v-6.989C-861.705,146.763-862,146.374-862.453,146.374Z" transform="translate(897.177 -145.987)"/>
        <path id="路径_14" data-name="路径 14" class="cls-1" d="M-730.338,143.287c-1.221.075-2.741.691-3.656.793v7.932h1.458a.745.745,0,0,0,.833-.838v-5.987a4.576,4.576,0,0,1,1.408-.28,1.239,1.239,0,0,1,1.4,1.4v4.846c0,.647.294.856.743.856h1.551V146.09C-726.6,143.974-728,143.143-730.338,143.287Z" transform="translate(778.906 -143.271)"/>
      </g>
    </g>
  </g>
</svg>
