<svg id="Loading_more" data-name="Loading more" xmlns="http://www.w3.org/2000/svg" width="64.834" height="64.834" viewBox="0 0 64.834 64.834">
  <defs>
    <style>
      .cls-1, .cls-10, .cls-11, .cls-12, .cls-2, .cls-3, .cls-4, .cls-5, .cls-6, .cls-7, .cls-8, .cls-9 {
        fill: #16965a;
      }

      .cls-1 {
        opacity: 0.65;
      }

      .cls-2 {
        opacity: 0.75;
      }

      .cls-3 {
        opacity: 0.85;
      }

      .cls-4 {
        opacity: 0.9;
      }

      .cls-5 {
        opacity: 0.2;
      }

      .cls-6 {
        opacity: 0.25;
      }

      .cls-7 {
        opacity: 0.3;
      }

      .cls-8 {
        opacity: 0.35;
      }

      .cls-9 {
        opacity: 0.4;
      }

      .cls-10 {
        opacity: 0.45;
      }

      .cls-11 {
        opacity: 0.5;
      }

      .cls-12 {
        opacity: 0.55;
      }
    </style>
  </defs>
  <g id="Loader">
    <path id="Fill_2" data-name="Fill 2" class="cls-1" d="M2.779,16.672h0A2.787,2.787,0,0,1,0,13.893V2.779A2.787,2.787,0,0,1,2.779,0h0A2.787,2.787,0,0,1,5.557,2.779V13.893a2.787,2.787,0,0,1-2.779,2.779" transform="translate(29.639)"/>
    <path id="Fill_4" data-name="Fill 4" class="cls-2" d="M1.388,14.458h0A2.685,2.685,0,0,1,.37,10.752l5.559-9.4a2.826,2.826,0,0,1,3.8-.993h0a2.685,2.685,0,0,1,1.017,3.706l-5.559,9.4a2.826,2.826,0,0,1-3.8.993" transform="translate(38.901 3.705)"/>
    <path id="Fill_6" data-name="Fill 6" class="cls-3" d="M.361,9.727h0a2.826,2.826,0,0,1,.993-3.8L10.752.37a2.685,2.685,0,0,1,3.706,1.017h0a2.826,2.826,0,0,1-.993,3.8l-9.4,5.559A2.685,2.685,0,0,1,.361,9.727" transform="translate(46.31 14.819)"/>
    <path id="Fill_8" data-name="Fill 8" class="cls-4" d="M0,2.779H0A2.787,2.787,0,0,1,2.779,0H13.893a2.787,2.787,0,0,1,2.779,2.779h0a2.787,2.787,0,0,1-2.779,2.779H2.779A2.787,2.787,0,0,1,0,2.779" transform="translate(48.163 29.639)"/>
    <path id="Fill_10" data-name="Fill 10" class="cls-5" d="M.361,1.388h0A2.685,2.685,0,0,1,4.067.37l9.4,5.559a2.826,2.826,0,0,1,.993,3.8h0a2.685,2.685,0,0,1-3.706,1.017l-9.4-5.559a2.826,2.826,0,0,1-.993-3.8" transform="translate(46.31 38.901)"/>
    <path id="Fill_12" data-name="Fill 12" class="cls-6" d="M1.388.361h0a2.826,2.826,0,0,1,3.8.993l5.559,9.4a2.685,2.685,0,0,1-1.017,3.706h0a2.826,2.826,0,0,1-3.8-.993L.37,4.067A2.685,2.685,0,0,1,1.388.361" transform="translate(38.901 46.31)"/>
    <path id="Fill_14" data-name="Fill 14" class="cls-7" d="M2.779,0h0A2.787,2.787,0,0,1,5.557,2.779V13.893a2.787,2.787,0,0,1-2.779,2.779h0A2.787,2.787,0,0,1,0,13.893V2.779A2.787,2.787,0,0,1,2.779,0" transform="translate(29.639 48.163)"/>
    <path id="Fill_16" data-name="Fill 16" class="cls-8" d="M9.727.361h0a2.685,2.685,0,0,1,1.017,3.706l-5.559,9.4a2.826,2.826,0,0,1-3.8.993h0A2.685,2.685,0,0,1,.37,10.752l5.559-9.4a2.826,2.826,0,0,1,3.8-.993" transform="translate(14.819 46.31)"/>
    <path id="Fill_18" data-name="Fill 18" class="cls-9" d="M14.458,1.388h0a2.826,2.826,0,0,1-.993,3.8l-9.4,5.559A2.685,2.685,0,0,1,.361,9.727h0a2.826,2.826,0,0,1,.993-3.8L10.752.37a2.685,2.685,0,0,1,3.706,1.017" transform="translate(3.705 38.901)"/>
    <path id="Fill_20" data-name="Fill 20" class="cls-10" d="M16.672,2.779h0a2.787,2.787,0,0,1-2.779,2.779H2.779A2.787,2.787,0,0,1,0,2.779H0A2.787,2.787,0,0,1,2.779,0H13.893a2.787,2.787,0,0,1,2.779,2.779" transform="translate(0 29.639)"/>
    <path id="Fill_22" data-name="Fill 22" class="cls-11" d="M14.458,9.727h0a2.685,2.685,0,0,1-3.706,1.017l-9.4-5.559a2.826,2.826,0,0,1-.993-3.8h0A2.685,2.685,0,0,1,4.067.37l9.4,5.559a2.826,2.826,0,0,1,.993,3.8" transform="translate(3.705 14.819)"/>
    <path id="Fill_24" data-name="Fill 24" class="cls-12" d="M9.727,14.458h0a2.826,2.826,0,0,1-3.8-.993L.37,4.067A2.685,2.685,0,0,1,1.388.361h0a2.826,2.826,0,0,1,3.8.993l5.559,9.4a2.685,2.685,0,0,1-1.017,3.706" transform="translate(14.819 3.705)"/>
  </g>
</svg>
