<svg id="Loading_more" data-name="Loading more" xmlns="http://www.w3.org/2000/svg" width="35" height="35" viewBox="0 0 35 35">
  <defs>
    <style>
      .cls-1, .cls-10, .cls-11, .cls-12, .cls-2, .cls-3, .cls-4, .cls-5, .cls-6, .cls-7, .cls-8, .cls-9 {
        fill: #fff;
      }

      .cls-1 {
        opacity: 0.65;
      }

      .cls-2 {
        opacity: 0.75;
      }

      .cls-3 {
        opacity: 0.85;
      }

      .cls-4 {
        opacity: 0.9;
      }

      .cls-5 {
        opacity: 0.2;
      }

      .cls-6 {
        opacity: 0.25;
      }

      .cls-7 {
        opacity: 0.3;
      }

      .cls-8 {
        opacity: 0.35;
      }

      .cls-9 {
        opacity: 0.4;
      }

      .cls-10 {
        opacity: 0.45;
      }

      .cls-11 {
        opacity: 0.5;
      }

      .cls-12 {
        opacity: 0.55;
      }
    </style>
  </defs>
  <g id="Loader">
    <path id="Fill_2" data-name="Fill 2" class="cls-1" d="M1.5,9h0A1.5,1.5,0,0,1,0,7.5v-6A1.5,1.5,0,0,1,1.5,0h0A1.5,1.5,0,0,1,3,1.5v6A1.5,1.5,0,0,1,1.5,9" transform="translate(16)"/>
    <path id="Fill_4" data-name="Fill 4" class="cls-2" d="M.749,7.8h0A1.45,1.45,0,0,1,.2,5.8L3.2.731A1.525,1.525,0,0,1,5.251.2h0a1.45,1.45,0,0,1,.549,2l-3,5.073A1.525,1.525,0,0,1,.749,7.8" transform="translate(21 2)"/>
    <path id="Fill_6" data-name="Fill 6" class="cls-3" d="M.2,5.251h0A1.525,1.525,0,0,1,.731,3.2L5.8.2a1.45,1.45,0,0,1,2,.549h0A1.525,1.525,0,0,1,7.269,2.8L2.2,5.8a1.45,1.45,0,0,1-2-.549" transform="translate(25 8)"/>
    <path id="Fill_8" data-name="Fill 8" class="cls-4" d="M0,1.5H0A1.5,1.5,0,0,1,1.5,0h6A1.5,1.5,0,0,1,9,1.5H9A1.5,1.5,0,0,1,7.5,3h-6A1.5,1.5,0,0,1,0,1.5" transform="translate(26 16)"/>
    <path id="Fill_10" data-name="Fill 10" class="cls-5" d="M.2.749h0A1.45,1.45,0,0,1,2.2.2l5.073,3A1.525,1.525,0,0,1,7.8,5.251h0a1.45,1.45,0,0,1-2,.549L.731,2.8A1.525,1.525,0,0,1,.2.749" transform="translate(25 21)"/>
    <path id="Fill_12" data-name="Fill 12" class="cls-6" d="M.749.2h0A1.525,1.525,0,0,1,2.8.731L5.8,5.8a1.45,1.45,0,0,1-.549,2h0A1.525,1.525,0,0,1,3.2,7.269L.2,2.2A1.45,1.45,0,0,1,.749.2" transform="translate(21 25)"/>
    <path id="Fill_14" data-name="Fill 14" class="cls-7" d="M1.5,0h0A1.5,1.5,0,0,1,3,1.5v6A1.5,1.5,0,0,1,1.5,9h0A1.5,1.5,0,0,1,0,7.5v-6A1.5,1.5,0,0,1,1.5,0" transform="translate(16 26)"/>
    <path id="Fill_16" data-name="Fill 16" class="cls-8" d="M5.251.2h0a1.45,1.45,0,0,1,.549,2l-3,5.073A1.525,1.525,0,0,1,.749,7.8h0A1.45,1.45,0,0,1,.2,5.8L3.2.731A1.525,1.525,0,0,1,5.251.2" transform="translate(8 25)"/>
    <path id="Fill_18" data-name="Fill 18" class="cls-9" d="M7.8.749h0A1.525,1.525,0,0,1,7.269,2.8L2.2,5.8a1.45,1.45,0,0,1-2-.549h0A1.525,1.525,0,0,1,.731,3.2L5.8.2a1.45,1.45,0,0,1,2,.549" transform="translate(2 21)"/>
    <path id="Fill_20" data-name="Fill 20" class="cls-10" d="M9,1.5H9A1.5,1.5,0,0,1,7.5,3h-6A1.5,1.5,0,0,1,0,1.5H0A1.5,1.5,0,0,1,1.5,0h6A1.5,1.5,0,0,1,9,1.5" transform="translate(0 16)"/>
    <path id="Fill_22" data-name="Fill 22" class="cls-11" d="M7.8,5.251h0a1.45,1.45,0,0,1-2,.549L.731,2.8A1.525,1.525,0,0,1,.2.749h0A1.45,1.45,0,0,1,2.2.2l5.073,3A1.525,1.525,0,0,1,7.8,5.251" transform="translate(2 8)"/>
    <path id="Fill_24" data-name="Fill 24" class="cls-12" d="M5.251,7.8h0A1.525,1.525,0,0,1,3.2,7.269L.2,2.2A1.45,1.45,0,0,1,.749.2h0A1.525,1.525,0,0,1,2.8.731L5.8,5.8a1.45,1.45,0,0,1-.549,2" transform="translate(8 2)"/>
  </g>
</svg>
