<svg id="成功" xmlns="http://www.w3.org/2000/svg" width="76.169" height="76.169" viewBox="0 0 76.169 76.169">
  <defs>
    <style>
      .cls-1, .cls-2 {
        fill: #16965a;
      }

      .cls-1 {
        opacity: 0;
      }
    </style>
  </defs>
  <rect id="Rectangle-path" class="cls-1" width="76.169" height="76.169"/>
  <path id="Shape" class="cls-2" d="M38.085,76.169A38.094,38.094,0,0,1,23.26,2.993,38.094,38.094,0,0,1,52.909,73.176,37.846,37.846,0,0,1,38.085,76.169ZM20.679,34.5a3.72,3.72,0,0,0-2.63,6.35l11.51,11.51a3.719,3.719,0,0,0,5.262,0l23.3-23.3a3.719,3.719,0,0,0-5.26-5.26l-20.67,20.67-8.882-8.882A3.7,3.7,0,0,0,20.679,34.5Z" transform="translate(0 0)"/>
</svg>
