<svg xmlns="http://www.w3.org/2000/svg" width="14" height="14" viewBox="0 0 14 14">
  <defs>
    <style>
      .cls-1 {
        fill: #219767;
      }

      .cls-2 {
        fill: none;
      }
    </style>
  </defs>
  <g id="组_140" data-name="组 140" transform="translate(-1739 -23)">
    <path id="_11" data-name="11" class="cls-1" d="M12.094,12.094H0V9.826C0,8.7,1.233,7.975,2.267,7.561A11.224,11.224,0,0,1,6.047,6.8a11.226,11.226,0,0,1,3.78.758c1.034.414,2.267,1.144,2.267,2.266v2.267ZM6.047,8.239c-2.248,0-4.61,1.1-4.61,1.587v.831h9.221V9.826C10.658,9.34,8.295,8.239,6.047,8.239Zm0-2.192A3.023,3.023,0,1,1,9.071,3.023,3.027,3.027,0,0,1,6.047,6.047Zm0-4.61A1.587,1.587,0,1,0,7.634,3.023,1.589,1.589,0,0,0,6.047,1.436Z" transform="translate(1740 24)"/>
    <rect id="矩形_97" data-name="矩形 97" class="cls-2" width="14" height="14" transform="translate(1739 23)"/>
  </g>
</svg>
