<svg xmlns="http://www.w3.org/2000/svg" width="16" height="14" viewBox="0 0 16 14">
  <defs>
    <style>
      .cls-1 {
        fill: #fff;
      }
    </style>
  </defs>
  <path id="导出" class="cls-1" d="M15,99.333H1a1.008,1.008,0,0,1-1-1.05v-11.9a1.008,1.008,0,0,1,1-1.05H5.933a.888.888,0,0,1,.7.315L7.7,86.768a.938.938,0,0,0,.7.315H15a1.008,1.008,0,0,1,1,1.05v10.15A1.008,1.008,0,0,1,15,99.333Zm-6.567-9.59a.662.662,0,0,0-.5-.21.716.716,0,0,0-.5.21l-2.8,3.15a.687.687,0,0,0,.5,1.155H6.667v2.1a.686.686,0,0,0,.667.7H8.667a.686.686,0,0,0,.667-.7v-2.1h1.4a.708.708,0,0,0,.5-1.155l-2.8-3.15Z" transform="translate(0 -85.333)"/>
</svg>
