<svg xmlns="http://www.w3.org/2000/svg" width="16" height="16" viewBox="0 0 16 16">
  <defs>
    <style>
      .cls-1 {
        fill: #219767;
      }

      .cls-2 {
        fill: none;
      }
    </style>
  </defs>
  <g id="组_346" data-name="组 346" transform="translate(-385 -422)">
    <path id="路径_45" data-name="路径 45" class="cls-1" d="M379.993,47.609h-2.97a.617.617,0,0,0-.611.621v.193a.616.616,0,0,0,.611.621h2.968a.616.616,0,0,0,.611-.621V48.23A.614.614,0,0,0,379.993,47.609ZM373.1,42.281c-.923.744-2.857,1.788-4.247,2.793h0c-.016.01-.032.066-.048.076-.165.094-.239.352-1.132.352h-1.743a.635.635,0,0,0-.726.692v4.257a.642.642,0,0,0,.726.716h1.749c.889,0,.961.259,1.124.352.016.008.032.066.048.074l0,0c1.347,1,3.292,2.129,4.247,2.845.286.215,1.243.593,1.243-.738V42.96c0-1.331-.963-.905-1.241-.678Zm2.741,2.934a.445.445,0,0,0,.7.159l2.441-2.089a.717.717,0,0,0,.127-.863l-.087-.159a.445.445,0,0,0-.7-.159l-2.443,2.087a.72.72,0,0,0-.127.865l.09.159Zm3.139,8.164-2.441-2.087a.446.446,0,0,0-.7.157l-.09.159a.718.718,0,0,0,.127.865l2.441,2.087a.445.445,0,0,0,.7-.157l.089-.159A.723.723,0,0,0,378.985,53.38Z" transform="translate(19.794 381.346)"/>
    <rect id="矩形_268" data-name="矩形 268" class="cls-2" width="16" height="16" transform="translate(385 422)"/>
  </g>
</svg>
