<svg xmlns="http://www.w3.org/2000/svg" width="16" height="14" viewBox="0 0 16 14">
  <defs>
    <style>
      .cls-1 {
        fill: #fff;
      }
    </style>
  </defs>
  <path id="导入_1_" data-name="导入 (1)" class="cls-1" d="M15,87.083H8.4a.888.888,0,0,1-.7-.315l-1.067-1.12a.938.938,0,0,0-.7-.315H1a1.008,1.008,0,0,0-1,1.05v11.9a1.008,1.008,0,0,0,1,1.05H15a1.008,1.008,0,0,0,1-1.05V88.133A1.008,1.008,0,0,0,15,87.083Zm-3.767,6.4-2.8,3.15a.662.662,0,0,1-.5.21.716.716,0,0,1-.5-.21l-2.8-3.15a.687.687,0,0,1,.5-1.155H6.667v-2.1a.686.686,0,0,1,.667-.7H8.667a.686.686,0,0,1,.667.7v2.1h1.4a.69.69,0,0,1,.5,1.155Z" transform="translate(0 -85.333)"/>
</svg>
